<svg width="193" height="50" viewBox="0 0 193 50" fill="none" xmlns="http://www.w3.org/2000/svg">
<path d="M23.0108 13.6084C20.7553 13.6084 18.944 13.6301 18.9559 13.6593C18.9668 13.681 20.8063 16.9104 23.0444 20.831L27.1178 27.9528H31.1911C33.4455 27.9528 35.2568 27.9311 35.2449 27.9019C35.2395 27.8802 33.3946 24.6508 31.1553 20.7302L27.082 13.6084H23.0108ZM17.8542 15.4826C16.5328 17.7584 15.222 20.0403 13.9217 22.3281L10 29.19L12.0475 32.7628L14.0896 36.3346L18.0113 29.4717L21.9307 22.6141L19.8941 19.0532C18.775 17.0956 17.8596 15.4891 17.8542 15.4826ZM20.3014 29.19L20.0815 29.567C19.958 29.7815 19.0415 31.3783 18.0448 33.1279C17.436 34.2029 16.8228 35.2754 16.2053 36.3454C16.1945 36.3736 19.7153 36.3909 24.0292 36.3909H31.8768L33.8225 32.9708C34.8972 31.0923 35.8267 29.4716 35.8873 29.3709L36 29.19H28.1469H20.3014Z" fill="#DCFD88"/>
<path d="M47.584 33V16.2H50.752V30.12H58.432V33H47.584ZM60.6878 33V21.096H63.7118V33H60.6878ZM62.1998 19.704C61.6558 19.704 61.1918 19.528 60.8078 19.176C60.4398 18.824 60.2558 18.36 60.2558 17.784C60.2558 17.208 60.4398 16.744 60.8078 16.392C61.1918 16.04 61.6558 15.864 62.1998 15.864C62.7598 15.864 63.2238 16.04 63.5918 16.392C63.9598 16.744 64.1438 17.208 64.1438 17.784C64.1438 18.36 63.9598 18.824 63.5918 19.176C63.2238 19.528 62.7598 19.704 62.1998 19.704ZM67.0628 33V21.096H70.0388V22.656H70.4708C70.6628 22.24 71.0228 21.848 71.5508 21.48C72.0788 21.096 72.8788 20.904 73.9508 20.904C74.8788 20.904 75.6868 21.12 76.3748 21.552C77.0788 21.968 77.6228 22.552 78.0068 23.304C78.3908 24.04 78.5828 24.904 78.5828 25.896V33H75.5588V26.136C75.5588 25.24 75.3348 24.568 74.8868 24.12C74.4548 23.672 73.8308 23.448 73.0148 23.448C72.0868 23.448 71.3668 23.76 70.8548 24.384C70.3428 24.992 70.0868 25.848 70.0868 26.952V33H67.0628ZM81.8519 33V16.2H84.8759V25.488H85.3079L89.2439 21.096H93.1799L87.6839 26.856L93.3719 33H89.4839L85.3079 28.272H84.8759V33H81.8519ZM94.7268 33V30.984C94.7268 29.816 94.9188 28.848 95.3027 28.08C95.6868 27.296 96.2388 26.656 96.9588 26.16C97.6948 25.648 98.5908 25.232 99.6468 24.912L101.255 24.408C101.847 24.216 102.343 23.984 102.743 23.712C103.143 23.424 103.447 23.08 103.655 22.68C103.879 22.28 103.991 21.824 103.991 21.312V21.216C103.991 20.416 103.719 19.784 103.175 19.32C102.631 18.84 101.887 18.6 100.943 18.6C100.015 18.6 99.2628 18.856 98.6868 19.368C98.1268 19.864 97.8468 20.584 97.8468 21.528V21.96H94.7748V21.576C94.7748 20.36 95.0468 19.328 95.5908 18.48C96.1348 17.632 96.8708 16.984 97.7988 16.536C98.7428 16.088 99.7908 15.864 100.943 15.864C102.095 15.864 103.135 16.088 104.063 16.536C104.991 16.968 105.719 17.584 106.247 18.384C106.791 19.168 107.063 20.096 107.063 21.168V21.408C107.063 22.48 106.839 23.392 106.391 24.144C105.959 24.88 105.367 25.488 104.615 25.968C103.863 26.432 103.007 26.816 102.047 27.12L100.511 27.6C99.8228 27.808 99.2868 28.04 98.9028 28.296C98.5188 28.536 98.2468 28.808 98.0868 29.112C97.9428 29.4 97.8708 29.752 97.8708 30.168V30.264H106.919V33H94.7268ZM115.361 33.336C114.209 33.336 113.161 33.08 112.217 32.568C111.289 32.04 110.545 31.28 109.985 30.288C109.441 29.28 109.169 28.056 109.169 26.616V22.584C109.169 20.424 109.777 18.768 110.993 17.616C112.209 16.448 113.857 15.864 115.937 15.864C118.001 15.864 119.593 16.416 120.713 17.52C121.849 18.608 122.417 20.088 122.417 21.96V22.056H119.297V21.864C119.297 21.272 119.169 20.736 118.913 20.256C118.673 19.776 118.305 19.4 117.809 19.128C117.313 18.84 116.689 18.696 115.937 18.696C114.817 18.696 113.937 19.04 113.297 19.728C112.657 20.416 112.337 21.352 112.337 22.536V26.664C112.337 27.832 112.657 28.776 113.297 29.496C113.937 30.2 114.833 30.552 115.985 30.552C117.137 30.552 117.977 30.248 118.505 29.64C119.033 29.032 119.297 28.264 119.297 27.336V27.096H115.313V24.408H122.417V33H119.489V31.392H119.057C118.945 31.664 118.761 31.952 118.505 32.256C118.265 32.56 117.897 32.816 117.401 33.024C116.905 33.232 116.225 33.336 115.361 33.336ZM124.963 33V30.216H127.171V18.984H124.963V16.2H131.875C134.131 16.2 135.843 16.776 137.011 17.928C138.195 19.064 138.787 20.76 138.787 23.016V26.184C138.787 28.44 138.195 30.144 137.011 31.296C135.843 32.432 134.131 33 131.875 33H124.963ZM130.339 30.12H131.923C133.203 30.12 134.139 29.784 134.731 29.112C135.323 28.44 135.619 27.496 135.619 26.28V22.92C135.619 21.688 135.323 20.744 134.731 20.088C134.139 19.416 133.203 19.08 131.923 19.08H130.339V30.12ZM141.524 33V21.096H144.5V22.44H144.932C145.108 21.96 145.396 21.608 145.796 21.384C146.212 21.16 146.692 21.048 147.236 21.048H148.676V23.736H147.188C146.42 23.736 145.788 23.944 145.292 24.36C144.796 24.76 144.548 25.384 144.548 26.232V33H141.524ZM151.039 33V21.096H154.063V33H151.039ZM152.551 19.704C152.007 19.704 151.543 19.528 151.159 19.176C150.791 18.824 150.607 18.36 150.607 17.784C150.607 17.208 150.791 16.744 151.159 16.392C151.543 16.04 152.007 15.864 152.551 15.864C153.111 15.864 153.575 16.04 153.943 16.392C154.311 16.744 154.495 17.208 154.495 17.784C154.495 18.36 154.311 18.824 153.943 19.176C153.575 19.528 153.111 19.704 152.551 19.704ZM159.91 33L156.118 21.096H159.334L162.094 30.792H162.526L165.286 21.096H168.502L164.71 33H159.91ZM175.635 33.336C174.451 33.336 173.403 33.088 172.491 32.592C171.595 32.08 170.891 31.368 170.379 30.456C169.883 29.528 169.635 28.44 169.635 27.192V26.904C169.635 25.656 169.883 24.576 170.379 23.664C170.875 22.736 171.571 22.024 172.467 21.528C173.363 21.016 174.403 20.76 175.587 20.76C176.755 20.76 177.771 21.024 178.635 21.552C179.499 22.064 180.171 22.784 180.651 23.712C181.131 24.624 181.371 25.688 181.371 26.904V27.936H172.707C172.739 28.752 173.043 29.416 173.619 29.928C174.195 30.44 174.899 30.696 175.731 30.696C176.579 30.696 177.203 30.512 177.603 30.144C178.003 29.776 178.307 29.368 178.515 28.92L180.987 30.216C180.763 30.632 180.435 31.088 180.003 31.584C179.587 32.064 179.027 32.48 178.323 32.832C177.619 33.168 176.723 33.336 175.635 33.336ZM172.731 25.68H178.299C178.235 24.992 177.955 24.44 177.459 24.024C176.979 23.608 176.347 23.4 175.563 23.4C174.747 23.4 174.099 23.608 173.619 24.024C173.139 24.44 172.843 24.992 172.731 25.68Z" fill="#DCFD88"/>
</svg>
